HIERARCHY
ROOT Hips
{
    OFFSET   0.000000   0.000000   0.000000
    CHANNELS 6 Xposition Yposition Zposition Zrotation Xrotation Yrotation
    JOINT Chest
    {
        OFFSET   0.000000   8.007230   0.000000
        CHANNELS 3 Zrotation Xrotation Yrotation
        JOINT Chest2
        {
            OFFSET   0.000000  22.077100   0.000000
            CHANNELS 3 Zrotation Xrotation Yrotation
            JOINT Neck
            {
                OFFSET   0.000000  23.254700   0.000000
                CHANNELS 3 Zrotation Xrotation Yrotation
                JOINT Head
                {
                    OFFSET   0.000010  14.370000   1.956610
                    CHANNELS 3 Zrotation Xrotation Yrotation
                    End Site
                    {
                        OFFSET   0.000000  19.566000   0.000000
                    }
                }
            }
            JOINT LeftCollar
            {
                OFFSET   3.911900  19.017000  -0.467063
                CHANNELS 3 Zrotation Xrotation Yrotation
                JOINT LeftShoulder
                {
                    OFFSET  10.383700   0.000000   0.000000
                    CHANNELS 3 Zrotation Xrotation Yrotation
                    JOINT LeftElbow
                    {
                        OFFSET  26.662100   0.001671   0.000522
                        CHANNELS 3 Zrotation Xrotation Yrotation
                        JOINT LeftWrist
                        {
                            OFFSET  28.869000   0.000037  -0.000114
                            CHANNELS 3 Zrotation Xrotation Yrotation
                            JOINT LeftFinger0
                            {
                                OFFSET   2.044650  -2.323450   3.252850
                                CHANNELS 3 Zrotation Xrotation Yrotation
                                JOINT LeftFinger01
                                {
                                    OFFSET   3.088140   0.000000   0.000000
                                    CHANNELS 3 Zrotation Xrotation Yrotation
                                    JOINT LeftFinger02
                                    {
                                        OFFSET   2.639460   0.000000   0.000000
                                        CHANNELS 3 Zrotation Xrotation Yrotation
                                        End Site
                                        {
                                            OFFSET   2.582190   0.000000   0.000000
                                        }
                                    }
                                }
                            }
                            JOINT LeftFinger1
                            {
                                OFFSET   8.364480   0.000000   3.252850
                                CHANNELS 3 Zrotation Xrotation Yrotation
                                JOINT LeftFinger11
                                {
                                    OFFSET   4.646930   0.000000   0.000000
                                    CHANNELS 3 Zrotation Xrotation Yrotation
                                    JOINT LeftFinger12
                                    {
                                        OFFSET   2.323470   0.000000   0.000000
                                        CHANNELS 3 Zrotation Xrotation Yrotation
                                        End Site
                                        {
                                            OFFSET   2.273050   0.000000   0.000000
                                        }
                                    }
                                }
                            }
                            JOINT LeftFinger2
                            {
                                OFFSET   8.364490   0.000016   1.078090
                                CHANNELS 3 Zrotation Xrotation Yrotation
                                JOINT LeftFinger21
                                {
                                    OFFSET   5.111620   0.000000   0.000000
                                    CHANNELS 3 Zrotation Xrotation Yrotation
                                    JOINT LeftFinger22
                                    {
                                        OFFSET   2.788150   0.000013   0.000000
                                        CHANNELS 3 Zrotation Xrotation Yrotation
                                        End Site
                                        {
                                            OFFSET   2.727660   0.000000   0.000000
                                        }
                                    }
                                }
                            }
                            JOINT LeftFinger3
                            {
                                OFFSET   7.899780   0.000016  -1.078090
                                CHANNELS 3 Zrotation Xrotation Yrotation
                                JOINT LeftFinger31
                                {
                                    OFFSET   4.646930   0.000000   0.000000
                                    CHANNELS 3 Zrotation Xrotation Yrotation
                                    JOINT LeftFinger32
                                    {
                                        OFFSET   2.323470   0.000000   0.000000
                                        CHANNELS 3 Zrotation Xrotation Yrotation
                                        End Site
                                        {
                                            OFFSET   2.273050   0.000000   0.000000
                                        }
                                    }
                                }
                            }
                            JOINT LeftFinger4
                            {
                                OFFSET   7.435080   0.000000  -3.252850
                                CHANNELS 3 Zrotation Xrotation Yrotation
                                JOINT LeftFinger41
                                {
                                    OFFSET   3.717550   0.000000   0.000000
                                    CHANNELS 3 Zrotation Xrotation Yrotation
                                    JOINT LeftFinger42
                                    {
                                        OFFSET   1.858760   0.000000   0.000000
                                        CHANNELS 3 Zrotation Xrotation Yrotation
                                        End Site
                                        {
                                            OFFSET   1.818440   0.000000   0.000000
                                        }
                                    }
                                }
                            }
                        }
                    }
                }
            }
            JOINT RightCollar
            {
                OFFSET  -3.911900  19.017000  -0.467064
                CHANNELS 3 Zrotation Xrotation Yrotation
                JOINT RightShoulder
                {
                    OFFSET -10.383700   0.000000   0.000000
                    CHANNELS 3 Zrotation Xrotation Yrotation
                    JOINT RightElbow
                    {
                        OFFSET -26.662100   0.001633   0.000260
                        CHANNELS 3 Zrotation Xrotation Yrotation
                        JOINT RightWrist
                        {
                            OFFSET -28.869000  -0.000045  -0.000080
                            CHANNELS 3 Zrotation Xrotation Yrotation
                            JOINT RightFinger0
                            {
                                OFFSET  -2.044660  -2.323490   3.252850
                                CHANNELS 3 Zrotation Xrotation Yrotation
                                JOINT RightFinger01
                                {
                                    OFFSET  -3.088140   0.000000   0.000000
                                    CHANNELS 3 Zrotation Xrotation Yrotation
                                    JOINT RightFinger02
                                    {
                                        OFFSET  -2.639450   0.000000   0.000000
                                        CHANNELS 3 Zrotation Xrotation Yrotation
                                        End Site
                                        {
                                            OFFSET  -2.582190   0.000000   0.000000
                                        }
                                    }
                                }
                            }
                            JOINT RightFinger1
                            {
                                OFFSET  -8.364480   0.000000   3.252850
                                CHANNELS 3 Zrotation Xrotation Yrotation
                                JOINT RightFinger11
                                {
                                    OFFSET  -4.646920   0.000000   0.000000
                                    CHANNELS 3 Zrotation Xrotation Yrotation
                                    JOINT RightFinger12
                                    {
                                        OFFSET  -2.323470   0.000000   0.000000
                                        CHANNELS 3 Zrotation Xrotation Yrotation
                                        End Site
                                        {
                                            OFFSET  -2.273050   0.000000   0.000000
                                        }
                                    }
                                }
                            }
                            JOINT RightFinger2
                            {
                                OFFSET  -8.364480   0.000000   1.078090
                                CHANNELS 3 Zrotation Xrotation Yrotation
                                JOINT RightFinger21
                                {
                                    OFFSET  -5.111610   0.000000   0.000000
                                    CHANNELS 3 Zrotation Xrotation Yrotation
                                    JOINT RightFinger22
                                    {
                                        OFFSET  -2.788160   0.000000   0.000000
                                        CHANNELS 3 Zrotation Xrotation Yrotation
                                        End Site
                                        {
                                            OFFSET  -2.727660   0.000000   0.000000
                                        }
                                    }
                                }
                            }
                            JOINT RightFinger3
                            {
                                OFFSET  -7.899780   0.000000  -1.078090
                                CHANNELS 3 Zrotation Xrotation Yrotation
                                JOINT RightFinger31
                                {
                                    OFFSET  -4.646930   0.000000   0.000000
                                    CHANNELS 3 Zrotation Xrotation Yrotation
                                    JOINT RightFinger32
                                    {
                                        OFFSET  -2.323470   0.000000   0.000000
                                        CHANNELS 3 Zrotation Xrotation Yrotation
                                        End Site
                                        {
                                            OFFSET  -2.273050   0.000000   0.000000
                                        }
                                    }
                                }
                            }
                            JOINT RightFinger4
                            {
                                OFFSET  -7.435090   0.000000  -3.252850
                                CHANNELS 3 Zrotation Xrotation Yrotation
                                JOINT RightFinger41
                                {
                                    OFFSET  -3.717550   0.000000   0.000000
                                    CHANNELS 3 Zrotation Xrotation Yrotation
                                    JOINT RightFinger42
                                    {
                                        OFFSET  -1.858760   0.000000   0.000000
                                        CHANNELS 3 Zrotation Xrotation Yrotation
                                        End Site
                                        {
                                            OFFSET  -1.818440   0.000000   0.000000
                                        }
                                    }
                                }
                            }
                        }
                    }
                }
            }
        }
    }
    JOINT LeftHip
    {
        OFFSET   9.782990   0.000000   0.000000
        CHANNELS 3 Zrotation Xrotation Yrotation
        JOINT LeftKnee
        {
            OFFSET  -0.000063 -41.789100   0.001657
            CHANNELS 3 Zrotation Xrotation Yrotation
            JOINT LeftAnkle
            {
                OFFSET   0.000078 -41.133200  -0.000113
                CHANNELS 3 Zrotation Xrotation Yrotation
                JOINT LeftToe
                {
                    OFFSET   0.000000  -6.358970  14.674500
                    CHANNELS 3 Zrotation Xrotation Yrotation
                    End Site
                    {
                        OFFSET   0.000000   0.000000   3.913200
                    }
                }
            }
        }
    }
    JOINT RightHip
    {
        OFFSET  -9.782990   0.000000   0.000000
        CHANNELS 3 Zrotation Xrotation Yrotation
        JOINT RightKnee
        {
            OFFSET   0.000053 -41.789200   0.000277
            CHANNELS 3 Zrotation Xrotation Yrotation
            JOINT RightAnkle
            {
                OFFSET   0.000030 -41.133200  -0.000150
                CHANNELS 3 Zrotation Xrotation Yrotation
                JOINT RightToe
                {
                    OFFSET   0.000000  -6.358960  14.674500
                    CHANNELS 3 Zrotation Xrotation Yrotation
                    End Site
                    {
                        OFFSET   0.000000   0.000000   3.913200
                    }
                }
            }
        }
    }
}
MOTION
Frames: 4
Frame Time:   0.016667
 -0.300591  89.566100  -0.848306  -1.269370  -2.309980  -1.921100   0.518279   0.546875  -0.919973   1.045340   1.085330  -1.844980   1.078970   2.451460  -0.035433   1.782260   4.966000   4.678740  -1.689780   1.283780   3.758250 -76.650600  17.109800   3.968440  -2.270140  -7.344390 -11.731700  13.010000 -14.517000   3.972510  40.128100  31.835800 -71.044200 -24.944800   0.006859   0.007454  -7.482640   0.006910  -0.000850 -28.156700   5.904590 -10.870700 -23.496600   0.002071  -0.003041 -16.447600   0.001092   0.001255 -28.324100  -1.222680   2.255360 -34.615300  -0.004018  -0.004504 -23.053800   0.000000  -0.005010 -28.137600  -1.215030   2.259390 -33.074500  -0.002523  -0.002318 -22.027700   0.002071   0.000312 -32.648300  -1.391050   2.167420 -49.012400  -0.004743  -0.004428 -32.642300   0.003683  -0.007453   5.619720   4.252380   6.271170  71.587000  11.647100  -3.848600  -0.751381  -4.460190   8.104940 -11.600400  -9.108430  -1.641270 -36.835200  28.464600  61.951800  30.962500   0.001285  -0.002267  10.481300   0.002553  -0.001946  28.185200   6.336450  11.629700  23.589500  -0.002373  -0.000900  16.512700  -0.010087  -0.000353  28.353100   4.431510   8.150410  38.370500  -0.001123  -0.000459  25.554800  -0.002482   0.000269  27.844600   3.671200   6.913740  32.359600  -0.004600  -0.002713  21.551500  -0.003398  -0.001068  36.963300  -0.252685  -0.314648  55.445900  -0.005687  -0.002433  36.927000  -0.004099  -0.000383   0.778228   4.042000   3.370760   1.118370   0.122128   7.601850  -1.210400  -2.261180   1.150690  -0.000000   0.000000   0.000000   2.259770   4.209420   0.325693   0.916699   0.298963  -9.903210  -2.451750  -3.102200  -1.337530   0.000000   0.000000   0.000000
 -0.305705  89.566100  -0.848183  -1.269500  -2.320190  -1.914610   0.518243   0.556684  -0.914897   1.045350   1.105000  -1.834910   1.055890   2.476720  -0.035509   1.744290   5.017090   4.713750  -1.695790   1.283920   3.763840 -76.635200  17.124100   3.968720  -2.275580  -7.354870 -11.740300  13.007500 -14.529600   3.964140  40.113400  31.836300 -71.061100 -24.952000   0.006869   0.007456  -7.482790   0.006910  -0.000848 -28.172200   5.904420 -10.870100 -23.509100   0.002074  -0.003042 -16.456400   0.001092   0.001256 -28.324000  -1.222670   2.261000 -34.647200  -0.004017  -0.004502 -23.075100   0.000000  -0.005007 -28.137400  -1.215020   2.265070 -33.091000  -0.002520  -0.002318 -22.038700   0.002069   0.000313 -32.663000  -1.391050   2.167420 -49.034200  -0.004744  -0.004424 -32.656700   0.003680  -0.007451   5.620670   4.243960   6.271050  71.586700  11.684100  -3.844550  -0.741388  -4.470850   8.099030 -11.628000  -9.119640  -1.650210 -36.824800  28.453100  61.940600  30.978300   0.001285  -0.002271  10.489100   0.002550  -0.001938  28.190200   6.336920  11.615200  23.593400  -0.002370  -0.000901  16.515400  -0.010088  -0.000351  28.354400   4.427050   8.141830  38.380800  -0.001124  -0.000457  25.561700  -0.002481   0.000270  27.844700   3.671200   6.913740  32.369400  -0.004597  -0.002712  21.558000  -0.003397  -0.001067  36.965000  -0.252890  -0.318120  55.448600  -0.005686  -0.002432  36.928700  -0.004097  -0.000383   0.777081   4.043230   3.370940   1.118550   0.124592   7.600340  -1.209260  -2.253330   1.150730  -0.000000   0.000000   0.000000   2.260300   4.217930   0.317604   0.917772   0.299354  -9.903250  -2.452450  -3.101620  -1.337570  -0.000000   0.000000  -0.000000
 -0.313559  89.566000  -0.847974  -1.269600  -2.336740  -1.902240   0.518271   0.571624  -0.908224   1.045620   1.134950  -1.821740   1.013230   2.520740  -0.035643   1.674050   5.106290   4.781230  -1.705330   1.284060   3.774920 -76.620100  17.140900   3.969060  -2.284960  -7.365140 -11.756800  12.996900 -14.542300   3.948450  40.102800  31.840300 -71.084500 -24.961900   0.006880   0.007461  -7.483060   0.006909  -0.000845 -28.187700   5.904260 -10.869400 -23.521700   0.002082  -0.003044 -16.465200   0.001091   0.001256 -28.323800  -1.222670   2.266650 -34.679100  -0.004011  -0.004499 -23.096300   0.000000  -0.004998 -28.137300  -1.215020   2.270750 -33.107500  -0.002511  -0.002317 -22.049600   0.002067   0.000315 -32.677600  -1.391050   2.167420 -49.055900  -0.004746  -0.004411 -32.671200   0.003676  -0.007445   5.621630   4.235540   6.270940  71.581600  11.741600  -3.832620  -0.723746  -4.488370   8.084450 -11.656300  -9.136410  -1.662650 -36.803600  28.434800  61.925700  30.997100   0.001282  -0.002278  10.498500   0.002545  -0.001925  28.201400   6.337470  11.600200  23.602500  -0.002366  -0.000901  16.521800  -0.010092  -0.000348  28.355700   4.422600   8.133250  38.401600  -0.001124  -0.000451  25.575500  -0.002476   0.000271  27.844700   3.671200   6.913740  32.389000  -0.004591  -0.002709  21.571100  -0.003396  -0.001065  36.972500  -0.253096  -0.323986  55.460000  -0.005681  -0.002429  36.936300  -0.004094  -0.000383   0.775935   4.044460   3.371120   1.118540   0.133906   7.596570  -1.208130  -2.245470   1.150770   0.000000   0.000000   0.000000   2.260720   4.229710   0.309516   0.920764   0.302098  -9.903580  -2.454150  -3.101030  -1.337670   0.000000   0.000000  -0.000000
 -0.318420  89.566000  -0.847756  -1.269440  -2.348930  -1.888740   0.518427   0.579595  -0.906362   1.046080   1.150910  -1.818120   0.970735   2.560500  -0.035798   1.604030   5.187260   4.850990  -1.711620   1.283740   3.784850 -76.622500  17.142500   3.974650  -2.294520  -7.362980 -11.775200  12.967600 -14.526300   3.930260  40.115900  31.857000 -71.091400 -24.965700   0.006879   0.007465  -7.483400   0.006912  -0.000842 -28.175300   5.905660 -10.875700 -23.511900   0.002090  -0.003042 -16.458200   0.001088   0.001254 -28.324200  -1.217080   2.256380 -34.665600  -0.004000  -0.004494 -23.087300   0.000000  -0.004985 -28.137700  -1.209390   2.260500 -33.083700  -0.002497  -0.002315 -22.033800   0.002066   0.000318 -32.666300  -1.384320   2.157850 -49.038700  -0.004749  -0.004390 -32.659700   0.003672  -0.007437   5.616050   4.240240   6.272160  71.567700  11.778000  -3.809940  -0.707679  -4.500150   8.060650 -11.657100  -9.147430  -1.667690 -36.784100  28.411700  61.931100  31.000500   0.001274  -0.002286  10.500300   0.002544  -0.001914  28.222400   6.337570  11.599600  23.619500  -0.002365  -0.000898  16.533600  -0.010100  -0.000347  28.355000   4.424950   8.137080  38.433200  -0.001116  -0.000444  25.596500  -0.002466   0.000274  27.843700   3.675110   6.920110  32.418400  -0.004584  -0.002703  21.590700  -0.003390  -0.001061  36.994100  -0.252486  -0.330089  55.492300  -0.005673  -0.002424  36.957900  -0.004087  -0.000383   0.778305   4.041540   3.369740   1.117780   0.154795   7.590550  -1.212480  -2.251310   1.146420  -0.000000   0.000000  -0.000000   2.260450   4.232090   0.309526   0.927090   0.316374  -9.909610  -2.456730  -3.106040  -1.337860   0.000000   0.000000   0.000000
